<mxfile host="app.diagrams.net" modified="2024-02-21T12:01:51.142Z" agent="Mozilla/5.0 (Windows NT 10.0; Win64; x64) AppleWebKit/537.36 (KHTML, like Gecko) Chrome/121.0.0.0 Safari/537.36" etag="6MzwAz5T0ShZBxEItlB2" version="23.1.5" type="google">
  <diagram name="PÃ¡gina-1" id="4qrwg1junuu9WGL_Z7i0">
    <mxGraphModel dx="2514" dy="2047" grid="1" gridSize="10" guides="1" tooltips="1" connect="1" arrows="1" fold="1" page="1" pageScale="1" pageWidth="827" pageHeight="1169" math="0" shadow="0">
      <root>
        <mxCell id="0" />
        <mxCell id="1" parent="0" />
        <mxCell id="9Z9Uj-_xaawS5yFSQ1y9-13" style="edgeStyle=orthogonalEdgeStyle;rounded=0;orthogonalLoop=1;jettySize=auto;html=1;exitX=0;exitY=0.5;exitDx=0;exitDy=0;entryX=1;entryY=0.5;entryDx=0;entryDy=0;" parent="1" source="NvCCnlT0BdvRKuTsiwFz-13" target="9Z9Uj-_xaawS5yFSQ1y9-12" edge="1">
          <mxGeometry relative="1" as="geometry" />
        </mxCell>
        <mxCell id="NvCCnlT0BdvRKuTsiwFz-10" style="edgeStyle=orthogonalEdgeStyle;rounded=0;orthogonalLoop=1;jettySize=auto;html=1;exitX=1;exitY=0.5;exitDx=0;exitDy=0;" parent="1" source="NvCCnlT0BdvRKuTsiwFz-11" target="NvCCnlT0BdvRKuTsiwFz-9" edge="1">
          <mxGeometry relative="1" as="geometry" />
        </mxCell>
        <mxCell id="9Z9Uj-_xaawS5yFSQ1y9-33" style="edgeStyle=orthogonalEdgeStyle;rounded=0;orthogonalLoop=1;jettySize=auto;html=1;exitX=0.75;exitY=1;exitDx=0;exitDy=0;entryX=0;entryY=0.5;entryDx=0;entryDy=0;" parent="1" source="9Z9Uj-_xaawS5yFSQ1y9-1" target="9Z9Uj-_xaawS5yFSQ1y9-10" edge="1">
          <mxGeometry relative="1" as="geometry" />
        </mxCell>
        <mxCell id="9Z9Uj-_xaawS5yFSQ1y9-34" style="edgeStyle=orthogonalEdgeStyle;rounded=0;orthogonalLoop=1;jettySize=auto;html=1;exitX=0.75;exitY=1;exitDx=0;exitDy=0;entryX=0;entryY=0.5;entryDx=0;entryDy=0;" parent="1" source="9Z9Uj-_xaawS5yFSQ1y9-1" target="9Z9Uj-_xaawS5yFSQ1y9-11" edge="1">
          <mxGeometry relative="1" as="geometry" />
        </mxCell>
        <mxCell id="9Z9Uj-_xaawS5yFSQ1y9-35" style="edgeStyle=orthogonalEdgeStyle;rounded=0;orthogonalLoop=1;jettySize=auto;html=1;exitX=0.75;exitY=1;exitDx=0;exitDy=0;entryX=0;entryY=0.5;entryDx=0;entryDy=0;" parent="1" source="9Z9Uj-_xaawS5yFSQ1y9-1" target="NvCCnlT0BdvRKuTsiwFz-6" edge="1">
          <mxGeometry relative="1" as="geometry" />
        </mxCell>
        <mxCell id="9Z9Uj-_xaawS5yFSQ1y9-36" style="edgeStyle=orthogonalEdgeStyle;rounded=0;orthogonalLoop=1;jettySize=auto;html=1;exitX=0.75;exitY=1;exitDx=0;exitDy=0;entryX=0;entryY=0.5;entryDx=0;entryDy=0;" parent="1" source="9Z9Uj-_xaawS5yFSQ1y9-1" target="NvCCnlT0BdvRKuTsiwFz-18" edge="1">
          <mxGeometry relative="1" as="geometry" />
        </mxCell>
        <mxCell id="9Z9Uj-_xaawS5yFSQ1y9-37" style="edgeStyle=orthogonalEdgeStyle;rounded=0;orthogonalLoop=1;jettySize=auto;html=1;exitX=0.75;exitY=1;exitDx=0;exitDy=0;entryX=0;entryY=0.5;entryDx=0;entryDy=0;" parent="1" source="9Z9Uj-_xaawS5yFSQ1y9-1" target="NvCCnlT0BdvRKuTsiwFz-17" edge="1">
          <mxGeometry relative="1" as="geometry" />
        </mxCell>
        <mxCell id="9Z9Uj-_xaawS5yFSQ1y9-38" style="edgeStyle=orthogonalEdgeStyle;rounded=0;orthogonalLoop=1;jettySize=auto;html=1;exitX=0.75;exitY=1;exitDx=0;exitDy=0;entryX=0;entryY=0.5;entryDx=0;entryDy=0;" parent="1" source="9Z9Uj-_xaawS5yFSQ1y9-1" target="9Z9Uj-_xaawS5yFSQ1y9-7" edge="1">
          <mxGeometry relative="1" as="geometry" />
        </mxCell>
        <mxCell id="9Z9Uj-_xaawS5yFSQ1y9-39" style="edgeStyle=orthogonalEdgeStyle;rounded=0;orthogonalLoop=1;jettySize=auto;html=1;exitX=0.75;exitY=1;exitDx=0;exitDy=0;entryX=0;entryY=0.5;entryDx=0;entryDy=0;" parent="1" source="9Z9Uj-_xaawS5yFSQ1y9-1" target="NvCCnlT0BdvRKuTsiwFz-7" edge="1">
          <mxGeometry relative="1" as="geometry" />
        </mxCell>
        <mxCell id="9Z9Uj-_xaawS5yFSQ1y9-40" style="edgeStyle=orthogonalEdgeStyle;rounded=0;orthogonalLoop=1;jettySize=auto;html=1;exitX=0.75;exitY=1;exitDx=0;exitDy=0;entryX=0;entryY=0.5;entryDx=0;entryDy=0;" parent="1" source="9Z9Uj-_xaawS5yFSQ1y9-1" target="NvCCnlT0BdvRKuTsiwFz-21" edge="1">
          <mxGeometry relative="1" as="geometry" />
        </mxCell>
        <mxCell id="9Z9Uj-_xaawS5yFSQ1y9-41" style="edgeStyle=orthogonalEdgeStyle;rounded=0;orthogonalLoop=1;jettySize=auto;html=1;exitX=0.75;exitY=1;exitDx=0;exitDy=0;entryX=0;entryY=0.5;entryDx=0;entryDy=0;" parent="1" source="9Z9Uj-_xaawS5yFSQ1y9-1" target="NvCCnlT0BdvRKuTsiwFz-22" edge="1">
          <mxGeometry relative="1" as="geometry" />
        </mxCell>
        <mxCell id="NvCCnlT0BdvRKuTsiwFz-25" value="&lt;b&gt;&lt;u&gt;ID_EMPLEADO&lt;/u&gt;&lt;/b&gt;" style="ellipse;whiteSpace=wrap;html=1;" parent="1" vertex="1">
          <mxGeometry x="-40" y="615" width="130" height="50" as="geometry" />
        </mxCell>
        <mxCell id="NvCCnlT0BdvRKuTsiwFz-28" value="ID_OFICIO_FK" style="ellipse;whiteSpace=wrap;html=1;" parent="1" vertex="1">
          <mxGeometry x="284" y="680" width="130" height="50" as="geometry" />
        </mxCell>
        <mxCell id="9Z9Uj-_xaawS5yFSQ1y9-1" value="ANIMAL" style="rounded=0;whiteSpace=wrap;html=1;" parent="1" vertex="1">
          <mxGeometry x="400" y="290" width="120" height="60" as="geometry" />
        </mxCell>
        <mxCell id="9Z9Uj-_xaawS5yFSQ1y9-8" style="edgeStyle=orthogonalEdgeStyle;rounded=0;orthogonalLoop=1;jettySize=auto;html=1;exitX=0.5;exitY=0;exitDx=0;exitDy=0;entryX=0.5;entryY=1;entryDx=0;entryDy=0;" parent="1" source="9Z9Uj-_xaawS5yFSQ1y9-2" target="9Z9Uj-_xaawS5yFSQ1y9-3" edge="1">
          <mxGeometry relative="1" as="geometry" />
        </mxCell>
        <mxCell id="NvCCnlT0BdvRKuTsiwFz-2" style="edgeStyle=orthogonalEdgeStyle;rounded=0;orthogonalLoop=1;jettySize=auto;html=1;exitX=0.25;exitY=0;exitDx=0;exitDy=0;entryX=1;entryY=1;entryDx=0;entryDy=0;endArrow=none;endFill=0;" parent="1" source="9Z9Uj-_xaawS5yFSQ1y9-3" target="9Z9Uj-_xaawS5yFSQ1y9-6" edge="1">
          <mxGeometry relative="1" as="geometry" />
        </mxCell>
        <mxCell id="NvCCnlT0BdvRKuTsiwFz-3" style="edgeStyle=orthogonalEdgeStyle;rounded=0;orthogonalLoop=1;jettySize=auto;html=1;exitX=0.75;exitY=0;exitDx=0;exitDy=0;entryX=0;entryY=1;entryDx=0;entryDy=0;endArrow=none;endFill=0;" parent="1" source="9Z9Uj-_xaawS5yFSQ1y9-3" target="9Z9Uj-_xaawS5yFSQ1y9-5" edge="1">
          <mxGeometry relative="1" as="geometry" />
        </mxCell>
        <mxCell id="9Z9Uj-_xaawS5yFSQ1y9-3" value="ESPECIE" style="rounded=0;whiteSpace=wrap;html=1;" parent="1" vertex="1">
          <mxGeometry x="400" y="40" width="120" height="60" as="geometry" />
        </mxCell>
        <mxCell id="9Z9Uj-_xaawS5yFSQ1y9-5" value="NOMBRE_ESPECIE" style="ellipse;whiteSpace=wrap;html=1;" parent="1" vertex="1">
          <mxGeometry x="510" y="-60" width="130" height="50" as="geometry" />
        </mxCell>
        <mxCell id="9Z9Uj-_xaawS5yFSQ1y9-6" value="&lt;u&gt;&lt;b&gt;ID_ESPECIE&lt;/b&gt;&lt;/u&gt;" style="ellipse;whiteSpace=wrap;html=1;" parent="1" vertex="1">
          <mxGeometry x="284" y="-60" width="130" height="50" as="geometry" />
        </mxCell>
        <mxCell id="9Z9Uj-_xaawS5yFSQ1y9-7" value="ID_ESPECIE_FK" style="ellipse;whiteSpace=wrap;html=1;" parent="1" vertex="1">
          <mxGeometry x="530" y="720" width="130" height="50" as="geometry" />
        </mxCell>
        <mxCell id="9Z9Uj-_xaawS5yFSQ1y9-10" value="&lt;b&gt;&lt;u&gt;ID_ANIMAL&lt;/u&gt;&lt;/b&gt;" style="ellipse;whiteSpace=wrap;html=1;" parent="1" vertex="1">
          <mxGeometry x="530" y="380" width="130" height="50" as="geometry" />
        </mxCell>
        <mxCell id="9Z9Uj-_xaawS5yFSQ1y9-11" value="EDAD_ANIMAL" style="ellipse;whiteSpace=wrap;html=1;" parent="1" vertex="1">
          <mxGeometry x="530" y="445" width="130" height="50" as="geometry" />
        </mxCell>
        <mxCell id="NvCCnlT0BdvRKuTsiwFz-6" value="NOMBRE_ANIMAL" style="ellipse;whiteSpace=wrap;html=1;" parent="1" vertex="1">
          <mxGeometry x="530" y="520" width="130" height="50" as="geometry" />
        </mxCell>
        <mxCell id="NvCCnlT0BdvRKuTsiwFz-7" value="ID_RECINTO_FK" style="ellipse;whiteSpace=wrap;html=1;" parent="1" vertex="1">
          <mxGeometry x="530" y="790" width="130" height="50" as="geometry" />
        </mxCell>
        <mxCell id="9Z9Uj-_xaawS5yFSQ1y9-12" value="RECINTO" style="rounded=0;whiteSpace=wrap;html=1;" parent="1" vertex="1">
          <mxGeometry x="10" y="290" width="120" height="60" as="geometry" />
        </mxCell>
        <mxCell id="NvCCnlT0BdvRKuTsiwFz-12" value="" style="edgeStyle=orthogonalEdgeStyle;rounded=0;orthogonalLoop=1;jettySize=auto;html=1;exitX=1;exitY=0.5;exitDx=0;exitDy=0;" parent="1" source="9Z9Uj-_xaawS5yFSQ1y9-1" target="NvCCnlT0BdvRKuTsiwFz-11" edge="1">
          <mxGeometry relative="1" as="geometry">
            <mxPoint x="520" y="320" as="sourcePoint" />
            <mxPoint x="710" y="320" as="targetPoint" />
          </mxGeometry>
        </mxCell>
        <mxCell id="NvCCnlT0BdvRKuTsiwFz-11" value="SIGUEN" style="rhombus;whiteSpace=wrap;html=1;" parent="1" vertex="1">
          <mxGeometry x="670" y="280" width="90" height="80" as="geometry" />
        </mxCell>
        <mxCell id="9Z9Uj-_xaawS5yFSQ1y9-9" style="edgeStyle=orthogonalEdgeStyle;rounded=0;orthogonalLoop=1;jettySize=auto;html=1;exitX=0.5;exitY=1;exitDx=0;exitDy=0;entryX=0.5;entryY=0;entryDx=0;entryDy=0;" parent="1" source="9Z9Uj-_xaawS5yFSQ1y9-2" target="9Z9Uj-_xaawS5yFSQ1y9-1" edge="1">
          <mxGeometry relative="1" as="geometry" />
        </mxCell>
        <mxCell id="NvCCnlT0BdvRKuTsiwFz-14" value="" style="edgeStyle=orthogonalEdgeStyle;rounded=0;orthogonalLoop=1;jettySize=auto;html=1;exitX=0;exitY=0.5;exitDx=0;exitDy=0;entryX=1;entryY=0.5;entryDx=0;entryDy=0;" parent="1" source="9Z9Uj-_xaawS5yFSQ1y9-1" target="NvCCnlT0BdvRKuTsiwFz-13" edge="1">
          <mxGeometry relative="1" as="geometry">
            <mxPoint x="400" y="320" as="sourcePoint" />
            <mxPoint x="200" y="320" as="targetPoint" />
          </mxGeometry>
        </mxCell>
        <mxCell id="NvCCnlT0BdvRKuTsiwFz-13" value="RESIDE" style="rhombus;whiteSpace=wrap;html=1;" parent="1" vertex="1">
          <mxGeometry x="230" y="280" width="80" height="80" as="geometry" />
        </mxCell>
        <mxCell id="9Z9Uj-_xaawS5yFSQ1y9-14" style="edgeStyle=orthogonalEdgeStyle;rounded=0;orthogonalLoop=1;jettySize=auto;html=1;exitX=0.5;exitY=1;exitDx=0;exitDy=0;entryX=0.5;entryY=0;entryDx=0;entryDy=0;" parent="1" source="NvCCnlT0BdvRKuTsiwFz-8" target="9Z9Uj-_xaawS5yFSQ1y9-12" edge="1">
          <mxGeometry relative="1" as="geometry" />
        </mxCell>
        <mxCell id="NvCCnlT0BdvRKuTsiwFz-8" value="&lt;b style=&quot;&quot;&gt;&lt;u&gt;ID_RECINTO&lt;/u&gt;&lt;/b&gt;" style="ellipse;whiteSpace=wrap;html=1;" parent="1" vertex="1">
          <mxGeometry x="-60" y="175" width="130" height="50" as="geometry" />
        </mxCell>
        <mxCell id="9Z9Uj-_xaawS5yFSQ1y9-2" value="PERTENECE" style="rhombus;whiteSpace=wrap;html=1;" parent="1" vertex="1">
          <mxGeometry x="420" y="160" width="80" height="80" as="geometry" />
        </mxCell>
        <mxCell id="9Z9Uj-_xaawS5yFSQ1y9-17" value="&lt;u&gt;&lt;b&gt;ID_HORARIO&lt;/b&gt;&lt;/u&gt;" style="ellipse;whiteSpace=wrap;html=1;" parent="1" vertex="1">
          <mxGeometry x="900" y="180" width="130" height="50" as="geometry" />
        </mxCell>
        <mxCell id="9Z9Uj-_xaawS5yFSQ1y9-19" value="HORARIO_COMIDA" style="ellipse;whiteSpace=wrap;html=1;" parent="1" vertex="1">
          <mxGeometry x="1070" y="295" width="130" height="50" as="geometry" />
        </mxCell>
        <mxCell id="NvCCnlT0BdvRKuTsiwFz-16" value="HORARIO_DESAYUNO" style="ellipse;whiteSpace=wrap;html=1;" parent="1" vertex="1">
          <mxGeometry x="1070" y="230" width="130" height="50" as="geometry" />
        </mxCell>
        <mxCell id="NvCCnlT0BdvRKuTsiwFz-17" value="CANTIDAD_ANIMAL" style="ellipse;whiteSpace=wrap;html=1;" parent="1" vertex="1">
          <mxGeometry x="530" y="650" width="130" height="50" as="geometry" />
        </mxCell>
        <mxCell id="NvCCnlT0BdvRKuTsiwFz-18" value="SEXO_ANIMAL" style="ellipse;whiteSpace=wrap;html=1;" parent="1" vertex="1">
          <mxGeometry x="530" y="585" width="130" height="50" as="geometry" />
        </mxCell>
        <mxCell id="9Z9Uj-_xaawS5yFSQ1y9-20" value="HORARIO_CENA" style="ellipse;whiteSpace=wrap;html=1;" parent="1" vertex="1">
          <mxGeometry x="1070" y="360" width="130" height="50" as="geometry" />
        </mxCell>
        <mxCell id="9Z9Uj-_xaawS5yFSQ1y9-24" value="ID_ANIMAL_FK" style="ellipse;whiteSpace=wrap;html=1;" parent="1" vertex="1">
          <mxGeometry x="940" y="420" width="130" height="50" as="geometry" />
        </mxCell>
        <mxCell id="NvCCnlT0BdvRKuTsiwFz-4" style="edgeStyle=orthogonalEdgeStyle;rounded=0;orthogonalLoop=1;jettySize=auto;html=1;exitX=0.5;exitY=0;exitDx=0;exitDy=0;" parent="1" source="9Z9Uj-_xaawS5yFSQ1y9-2" target="9Z9Uj-_xaawS5yFSQ1y9-3" edge="1">
          <mxGeometry relative="1" as="geometry" />
        </mxCell>
        <mxCell id="9Z9Uj-_xaawS5yFSQ1y9-21" style="edgeStyle=orthogonalEdgeStyle;rounded=0;orthogonalLoop=1;jettySize=auto;html=1;exitX=1;exitY=0;exitDx=0;exitDy=0;entryX=0;entryY=0.5;entryDx=0;entryDy=0;" parent="1" source="NvCCnlT0BdvRKuTsiwFz-9" target="NvCCnlT0BdvRKuTsiwFz-16" edge="1">
          <mxGeometry relative="1" as="geometry" />
        </mxCell>
        <mxCell id="9Z9Uj-_xaawS5yFSQ1y9-18" style="edgeStyle=orthogonalEdgeStyle;rounded=0;orthogonalLoop=1;jettySize=auto;html=1;exitX=0.5;exitY=1;exitDx=0;exitDy=0;entryX=0.5;entryY=0;entryDx=0;entryDy=0;" parent="1" source="9Z9Uj-_xaawS5yFSQ1y9-17" target="NvCCnlT0BdvRKuTsiwFz-9" edge="1">
          <mxGeometry relative="1" as="geometry" />
        </mxCell>
        <mxCell id="9Z9Uj-_xaawS5yFSQ1y9-22" style="edgeStyle=orthogonalEdgeStyle;rounded=0;orthogonalLoop=1;jettySize=auto;html=1;exitX=1;exitY=0.5;exitDx=0;exitDy=0;entryX=0;entryY=0.5;entryDx=0;entryDy=0;" parent="1" source="NvCCnlT0BdvRKuTsiwFz-9" target="9Z9Uj-_xaawS5yFSQ1y9-19" edge="1">
          <mxGeometry relative="1" as="geometry" />
        </mxCell>
        <mxCell id="9Z9Uj-_xaawS5yFSQ1y9-23" style="edgeStyle=orthogonalEdgeStyle;rounded=0;orthogonalLoop=1;jettySize=auto;html=1;exitX=1;exitY=1;exitDx=0;exitDy=0;entryX=0;entryY=0.5;entryDx=0;entryDy=0;" parent="1" source="NvCCnlT0BdvRKuTsiwFz-9" target="9Z9Uj-_xaawS5yFSQ1y9-20" edge="1">
          <mxGeometry relative="1" as="geometry" />
        </mxCell>
        <mxCell id="9Z9Uj-_xaawS5yFSQ1y9-25" style="edgeStyle=orthogonalEdgeStyle;rounded=0;orthogonalLoop=1;jettySize=auto;html=1;exitX=0.5;exitY=1;exitDx=0;exitDy=0;entryX=0;entryY=0;entryDx=0;entryDy=0;" parent="1" source="NvCCnlT0BdvRKuTsiwFz-9" target="9Z9Uj-_xaawS5yFSQ1y9-24" edge="1">
          <mxGeometry relative="1" as="geometry" />
        </mxCell>
        <mxCell id="NvCCnlT0BdvRKuTsiwFz-9" value="HORARIOS" style="rounded=0;whiteSpace=wrap;html=1;" parent="1" vertex="1">
          <mxGeometry x="890" y="290" width="120" height="60" as="geometry" />
        </mxCell>
        <mxCell id="9Z9Uj-_xaawS5yFSQ1y9-16" style="edgeStyle=orthogonalEdgeStyle;rounded=0;orthogonalLoop=1;jettySize=auto;html=1;exitX=0.5;exitY=1;exitDx=0;exitDy=0;entryX=0;entryY=0.5;entryDx=0;entryDy=0;" parent="1" source="9Z9Uj-_xaawS5yFSQ1y9-15" target="9Z9Uj-_xaawS5yFSQ1y9-12" edge="1">
          <mxGeometry relative="1" as="geometry" />
        </mxCell>
        <mxCell id="9Z9Uj-_xaawS5yFSQ1y9-15" value="NOMBRE_RECINTO" style="ellipse;whiteSpace=wrap;html=1;" parent="1" vertex="1">
          <mxGeometry x="-200" y="210" width="130" height="50" as="geometry" />
        </mxCell>
        <mxCell id="NvCCnlT0BdvRKuTsiwFz-21" value="ID_HORARIO_FK" style="ellipse;whiteSpace=wrap;html=1;" parent="1" vertex="1">
          <mxGeometry x="530" y="860" width="130" height="50" as="geometry" />
        </mxCell>
        <mxCell id="NvCCnlT0BdvRKuTsiwFz-22" value="ID_EMPLEADO_FK" style="ellipse;whiteSpace=wrap;html=1;" parent="1" vertex="1">
          <mxGeometry x="530" y="940" width="130" height="50" as="geometry" />
        </mxCell>
        <mxCell id="9Z9Uj-_xaawS5yFSQ1y9-27" style="edgeStyle=orthogonalEdgeStyle;rounded=0;orthogonalLoop=1;jettySize=auto;html=1;exitX=0.5;exitY=0;exitDx=0;exitDy=0;entryX=0.5;entryY=1;entryDx=0;entryDy=0;" parent="1" source="NvCCnlT0BdvRKuTsiwFz-23" target="9Z9Uj-_xaawS5yFSQ1y9-26" edge="1">
          <mxGeometry relative="1" as="geometry" />
        </mxCell>
        <mxCell id="NvCCnlT0BdvRKuTsiwFz-26" style="edgeStyle=orthogonalEdgeStyle;rounded=0;orthogonalLoop=1;jettySize=auto;html=1;exitX=0;exitY=0.5;exitDx=0;exitDy=0;entryX=1;entryY=0.5;entryDx=0;entryDy=0;" parent="1" source="NvCCnlT0BdvRKuTsiwFz-23" target="NvCCnlT0BdvRKuTsiwFz-25" edge="1">
          <mxGeometry relative="1" as="geometry" />
        </mxCell>
        <mxCell id="NvCCnlT0BdvRKuTsiwFz-35" style="edgeStyle=orthogonalEdgeStyle;rounded=0;orthogonalLoop=1;jettySize=auto;html=1;exitX=0.25;exitY=1;exitDx=0;exitDy=0;entryX=1;entryY=0.5;entryDx=0;entryDy=0;" parent="1" source="NvCCnlT0BdvRKuTsiwFz-23" target="NvCCnlT0BdvRKuTsiwFz-34" edge="1">
          <mxGeometry relative="1" as="geometry">
            <Array as="points">
              <mxPoint x="180" y="670" />
              <mxPoint x="180" y="765" />
            </Array>
          </mxGeometry>
        </mxCell>
        <mxCell id="9Z9Uj-_xaawS5yFSQ1y9-45" style="edgeStyle=orthogonalEdgeStyle;rounded=0;orthogonalLoop=1;jettySize=auto;html=1;exitX=0.25;exitY=1;exitDx=0;exitDy=0;entryX=1;entryY=0.5;entryDx=0;entryDy=0;" parent="1" source="NvCCnlT0BdvRKuTsiwFz-23" target="9Z9Uj-_xaawS5yFSQ1y9-43" edge="1">
          <mxGeometry relative="1" as="geometry" />
        </mxCell>
        <mxCell id="NvCCnlT0BdvRKuTsiwFz-40" style="edgeStyle=orthogonalEdgeStyle;rounded=0;orthogonalLoop=1;jettySize=auto;html=1;exitX=0;exitY=1;exitDx=0;exitDy=0;entryX=1;entryY=0.5;entryDx=0;entryDy=0;" parent="1" source="NvCCnlT0BdvRKuTsiwFz-23" target="NvCCnlT0BdvRKuTsiwFz-32" edge="1">
          <mxGeometry relative="1" as="geometry" />
        </mxCell>
        <mxCell id="NvCCnlT0BdvRKuTsiwFz-23" value="EMPLEADOS" style="rounded=0;whiteSpace=wrap;html=1;" parent="1" vertex="1">
          <mxGeometry x="170" y="610" width="120" height="60" as="geometry" />
        </mxCell>
        <mxCell id="9Z9Uj-_xaawS5yFSQ1y9-28" style="edgeStyle=orthogonalEdgeStyle;rounded=0;orthogonalLoop=1;jettySize=auto;html=1;exitX=0.5;exitY=0;exitDx=0;exitDy=0;entryX=0.25;entryY=1;entryDx=0;entryDy=0;" parent="1" source="9Z9Uj-_xaawS5yFSQ1y9-26" target="9Z9Uj-_xaawS5yFSQ1y9-1" edge="1">
          <mxGeometry relative="1" as="geometry" />
        </mxCell>
        <mxCell id="9Z9Uj-_xaawS5yFSQ1y9-26" value="CUIDAN" style="rhombus;whiteSpace=wrap;html=1;" parent="1" vertex="1">
          <mxGeometry x="290" y="430" width="80" height="80" as="geometry" />
        </mxCell>
        <mxCell id="NvCCnlT0BdvRKuTsiwFz-34" value="EDAD_EMPLEADO" style="ellipse;whiteSpace=wrap;html=1;" parent="1" vertex="1">
          <mxGeometry x="-30" y="740" width="130" height="50" as="geometry" />
        </mxCell>
        <mxCell id="9Z9Uj-_xaawS5yFSQ1y9-29" value="(1,1)" style="text;html=1;align=center;verticalAlign=middle;whiteSpace=wrap;rounded=0;" parent="1" vertex="1">
          <mxGeometry x="240" y="570" width="60" height="30" as="geometry" />
        </mxCell>
        <mxCell id="9Z9Uj-_xaawS5yFSQ1y9-30" value="(0,n)" style="text;html=1;align=center;verticalAlign=middle;whiteSpace=wrap;rounded=0;" parent="1" vertex="1">
          <mxGeometry x="370" y="350" width="60" height="30" as="geometry" />
        </mxCell>
        <mxCell id="9Z9Uj-_xaawS5yFSQ1y9-31" value="1:N" style="text;html=1;align=center;verticalAlign=middle;whiteSpace=wrap;rounded=0;" parent="1" vertex="1">
          <mxGeometry x="370" y="455" width="60" height="30" as="geometry" />
        </mxCell>
        <mxCell id="NvCCnlT0BdvRKuTsiwFz-32" value="NOMBRE_EMPLEADO" style="ellipse;whiteSpace=wrap;html=1;" parent="1" vertex="1">
          <mxGeometry x="-30" y="680" width="130" height="50" as="geometry" />
        </mxCell>
        <mxCell id="9Z9Uj-_xaawS5yFSQ1y9-43" value="TELEFONO_EMPLEADO" style="ellipse;whiteSpace=wrap;html=1;" parent="1" vertex="1">
          <mxGeometry x="-35" y="800" width="140" height="50" as="geometry" />
        </mxCell>
        <mxCell id="9Z9Uj-_xaawS5yFSQ1y9-44" value="SI EL OFICIO ES CUIDADOR ENTONCES PODRA ENLAZARSE CON UN ANIMAL O VARIOS A LOS QUE CUIDE" style="text;html=1;align=center;verticalAlign=middle;whiteSpace=wrap;rounded=0;fillColor=#f8cecc;strokeColor=#b85450;" parent="1" vertex="1">
          <mxGeometry x="-20" y="510" width="150" height="90" as="geometry" />
        </mxCell>
        <mxCell id="NvCCnlT0BdvRKuTsiwFz-38" value="(1,n)" style="text;html=1;align=center;verticalAlign=middle;resizable=0;points=[];autosize=1;strokeColor=none;fillColor=none;" parent="1" vertex="1">
          <mxGeometry x="835" y="288" width="50" height="30" as="geometry" />
        </mxCell>
        <mxCell id="NvCCnlT0BdvRKuTsiwFz-39" value="(1,n)" style="text;html=1;align=center;verticalAlign=middle;resizable=0;points=[];autosize=1;strokeColor=none;fillColor=none;" parent="1" vertex="1">
          <mxGeometry x="515" y="288" width="50" height="30" as="geometry" />
        </mxCell>
        <mxCell id="NvCCnlT0BdvRKuTsiwFz-45" style="edgeStyle=orthogonalEdgeStyle;rounded=0;orthogonalLoop=1;jettySize=auto;html=1;exitX=0.5;exitY=1;exitDx=0;exitDy=0;entryX=0.5;entryY=0;entryDx=0;entryDy=0;" parent="1" source="NvCCnlT0BdvRKuTsiwFz-41" target="NvCCnlT0BdvRKuTsiwFz-43" edge="1">
          <mxGeometry relative="1" as="geometry" />
        </mxCell>
        <mxCell id="NvCCnlT0BdvRKuTsiwFz-41" value="TRABAJA" style="rhombus;whiteSpace=wrap;html=1;" parent="1" vertex="1">
          <mxGeometry x="180" y="850" width="100" height="80" as="geometry" />
        </mxCell>
        <mxCell id="9Z9Uj-_xaawS5yFSQ1y9-55" style="edgeStyle=orthogonalEdgeStyle;rounded=0;orthogonalLoop=1;jettySize=auto;html=1;exitX=0;exitY=1;exitDx=0;exitDy=0;entryX=1;entryY=0.5;entryDx=0;entryDy=0;" parent="1" source="NvCCnlT0BdvRKuTsiwFz-43" target="9Z9Uj-_xaawS5yFSQ1y9-54" edge="1">
          <mxGeometry relative="1" as="geometry" />
        </mxCell>
        <mxCell id="NvCCnlT0BdvRKuTsiwFz-50" style="edgeStyle=orthogonalEdgeStyle;rounded=0;orthogonalLoop=1;jettySize=auto;html=1;exitX=1;exitY=1;exitDx=0;exitDy=0;entryX=0;entryY=0.5;entryDx=0;entryDy=0;" parent="1" source="NvCCnlT0BdvRKuTsiwFz-43" target="NvCCnlT0BdvRKuTsiwFz-48" edge="1">
          <mxGeometry relative="1" as="geometry" />
        </mxCell>
        <mxCell id="NvCCnlT0BdvRKuTsiwFz-43" value="OFICIO" style="rounded=0;whiteSpace=wrap;html=1;" parent="1" vertex="1">
          <mxGeometry x="170" y="1040" width="120" height="60" as="geometry" />
        </mxCell>
        <mxCell id="NvCCnlT0BdvRKuTsiwFz-42" style="edgeStyle=orthogonalEdgeStyle;rounded=0;orthogonalLoop=1;jettySize=auto;html=1;exitX=0.5;exitY=1;exitDx=0;exitDy=0;entryX=0.5;entryY=0;entryDx=0;entryDy=0;" parent="1" source="NvCCnlT0BdvRKuTsiwFz-23" target="NvCCnlT0BdvRKuTsiwFz-41" edge="1">
          <mxGeometry relative="1" as="geometry" />
        </mxCell>
        <mxCell id="9Z9Uj-_xaawS5yFSQ1y9-48" style="edgeStyle=orthogonalEdgeStyle;rounded=0;orthogonalLoop=1;jettySize=auto;html=1;exitX=0.75;exitY=1;exitDx=0;exitDy=0;entryX=0;entryY=0.5;entryDx=0;entryDy=0;" parent="1" source="NvCCnlT0BdvRKuTsiwFz-23" target="NvCCnlT0BdvRKuTsiwFz-28" edge="1">
          <mxGeometry relative="1" as="geometry" />
        </mxCell>
        <mxCell id="9Z9Uj-_xaawS5yFSQ1y9-49" value="(1,1)" style="text;html=1;align=center;verticalAlign=middle;resizable=0;points=[];autosize=1;strokeColor=none;fillColor=none;" parent="1" vertex="1">
          <mxGeometry x="140" y="280" width="50" height="30" as="geometry" />
        </mxCell>
        <mxCell id="9Z9Uj-_xaawS5yFSQ1y9-51" value="(0,n)" style="text;html=1;align=center;verticalAlign=middle;whiteSpace=wrap;rounded=0;" parent="1" vertex="1">
          <mxGeometry x="330" y="280" width="60" height="30" as="geometry" />
        </mxCell>
        <mxCell id="9Z9Uj-_xaawS5yFSQ1y9-52" value="(1,1)" style="text;html=1;align=center;verticalAlign=middle;resizable=0;points=[];autosize=1;strokeColor=none;fillColor=none;" parent="1" vertex="1">
          <mxGeometry x="465" y="100" width="50" height="30" as="geometry" />
        </mxCell>
        <mxCell id="9Z9Uj-_xaawS5yFSQ1y9-53" value="(1,n)" style="text;html=1;align=center;verticalAlign=middle;whiteSpace=wrap;rounded=0;" parent="1" vertex="1">
          <mxGeometry x="465" y="250" width="60" height="30" as="geometry" />
        </mxCell>
        <mxCell id="NvCCnlT0BdvRKuTsiwFz-48" value="NOMBRE_OFICIO" style="ellipse;whiteSpace=wrap;html=1;" parent="1" vertex="1">
          <mxGeometry x="310" y="1090" width="140" height="50" as="geometry" />
        </mxCell>
        <mxCell id="9Z9Uj-_xaawS5yFSQ1y9-56" value="1:N" style="text;html=1;align=center;verticalAlign=middle;whiteSpace=wrap;rounded=0;" parent="1" vertex="1">
          <mxGeometry x="485" y="180" width="60" height="30" as="geometry" />
        </mxCell>
        <mxCell id="NvCCnlT0BdvRKuTsiwFz-52" value="1:N" style="text;html=1;align=center;verticalAlign=middle;resizable=0;points=[];autosize=1;strokeColor=none;fillColor=none;" parent="1" vertex="1">
          <mxGeometry x="250" y="230" width="40" height="30" as="geometry" />
        </mxCell>
        <mxCell id="9Z9Uj-_xaawS5yFSQ1y9-57" value="N:M" style="text;html=1;align=center;verticalAlign=middle;whiteSpace=wrap;rounded=0;" parent="1" vertex="1">
          <mxGeometry x="695" y="240" width="60" height="30" as="geometry" />
        </mxCell>
        <mxCell id="9Z9Uj-_xaawS5yFSQ1y9-54" value="&lt;b&gt;&lt;u&gt;ID_OFICIO&lt;/u&gt;&lt;/b&gt;" style="ellipse;whiteSpace=wrap;html=1;" parent="1" vertex="1">
          <mxGeometry x="10" y="1090" width="130" height="50" as="geometry" />
        </mxCell>
        <mxCell id="NvCCnlT0BdvRKuTsiwFz-54" value="(1,1)" style="text;html=1;align=center;verticalAlign=middle;resizable=0;points=[];autosize=1;strokeColor=none;fillColor=none;" parent="1" vertex="1">
          <mxGeometry x="225" y="968" width="50" height="30" as="geometry" />
        </mxCell>
        <mxCell id="NvCCnlT0BdvRKuTsiwFz-55" value="(0,n)" style="text;html=1;align=center;verticalAlign=middle;resizable=0;points=[];autosize=1;strokeColor=none;fillColor=none;" parent="1" vertex="1">
          <mxGeometry x="230" y="750" width="50" height="30" as="geometry" />
        </mxCell>
        <mxCell id="NvCCnlT0BdvRKuTsiwFz-56" value="1:N" style="text;html=1;align=center;verticalAlign=middle;resizable=0;points=[];autosize=1;strokeColor=none;fillColor=none;" parent="1" vertex="1">
          <mxGeometry x="290" y="880" width="40" height="30" as="geometry" />
        </mxCell>
        <mxCell id="9BrDLRoI2pEiPc-t6J7w-2" value="&lt;div style=&quot;font-size: 17px;&quot;&gt;&lt;font style=&quot;font-size: 17px;&quot;&gt;&lt;br&gt;&lt;/font&gt;&lt;/div&gt;&lt;div style=&quot;font-size: 17px;&quot;&gt;&lt;font style=&quot;font-size: 17px;&quot;&gt;A continuaciÃ³n vamos a explicar el por quÃ© de las relaciones de la base de datos que vamos a crear.&lt;/font&gt;&lt;/div&gt;&lt;div style=&quot;font-size: 17px;&quot;&gt;&lt;font style=&quot;font-size: 17px;&quot;&gt;Nuestra base de datos se va a basar en un zoo y nos vamos a&lt;/font&gt;&lt;span style=&quot;background-color: initial;&quot;&gt;&amp;nbsp;enfocar mayoritariamente en los animales, sus cuidadores y&amp;nbsp;&lt;/span&gt;&lt;span style=&quot;background-color: initial;&quot;&gt;el recinto en el que se halla su hÃ¡bitat.&lt;/span&gt;&lt;/div&gt;&lt;div style=&quot;font-size: 17px;&quot;&gt;&lt;br&gt;&lt;/div&gt;" style="rounded=0;whiteSpace=wrap;html=1;fillColor=#e6d0de;strokeColor=#996185;gradientColor=#d5739d;" parent="1" vertex="1">
          <mxGeometry x="-415" y="-320" width="385" height="160" as="geometry" />
        </mxCell>
        <mxCell id="9BrDLRoI2pEiPc-t6J7w-3" value="&lt;div style=&quot;font-size: 16px;&quot;&gt;En la entidad recinto hemos creado los atributos&amp;nbsp;&lt;span style=&quot;background-color: initial;&quot;&gt;Nombre_recinto e id_recinto para poder identificarlos como clave foranea en las relaciones que hagamos.&lt;/span&gt;&lt;/div&gt;" style="rounded=0;whiteSpace=wrap;html=1;fillColor=#e6d0de;gradientColor=#d5739d;strokeColor=#996185;" parent="1" vertex="1">
          <mxGeometry x="-360" y="-20" width="260" height="140" as="geometry" />
        </mxCell>
        <mxCell id="9BrDLRoI2pEiPc-t6J7w-4" value="&lt;div style=&quot;font-size: 16px;&quot;&gt;En la entidad empleados hemos creado el id_empleado para identificarlo como clave forÃ¡nea en otras tablas y tambiÃ©n otros atributos para especificar mÃ¡s sobre el empleado en cuestiÃ³n.&lt;/div&gt;" style="rounded=0;whiteSpace=wrap;html=1;fillColor=#e6d0de;gradientColor=#d5739d;strokeColor=#996185;" parent="1" vertex="1">
          <mxGeometry x="-440" y="675" width="260" height="140" as="geometry" />
        </mxCell>
        <mxCell id="9BrDLRoI2pEiPc-t6J7w-5" value="&lt;div style=&quot;font-size: 16px;&quot;&gt;Recibiremos la clave forÃ¡nea de oficio (id_oficio_fk) para indicar que oficio tiene cada empleado.&lt;/div&gt;" style="rounded=0;whiteSpace=wrap;html=1;fillColor=#e6d0de;gradientColor=#d5739d;strokeColor=#996185;" parent="1" vertex="1">
          <mxGeometry x="-350" y="828" width="210" height="140" as="geometry" />
        </mxCell>
        <mxCell id="9BrDLRoI2pEiPc-t6J7w-6" value="&lt;div style=&quot;font-size: 16px;&quot;&gt;Creamos la entidad oficio y creamos id_oficio y nombre_oficio solamente para darle informaciÃ³n a la relaciÃ³n empleados de que oficio cumple cada uno de ellos.&lt;/div&gt;" style="rounded=0;whiteSpace=wrap;html=1;fillColor=#e6d0de;gradientColor=#d5739d;strokeColor=#996185;" parent="1" vertex="1">
          <mxGeometry x="-140" y="1169" width="210" height="140" as="geometry" />
        </mxCell>
        <mxCell id="9BrDLRoI2pEiPc-t6J7w-7" value="&lt;div style=&quot;font-size: 16px;&quot;&gt;Creamos el id_animal y otros atributos para describir al animal en cuestiÃ³n y le pasamos de otras tablas las claves forÃ¡neas de especie, recinto, horario (de comidas) y el id del empleado que es el encargado que ese animal en concreto.&lt;/div&gt;" style="rounded=0;whiteSpace=wrap;html=1;fillColor=#e6d0de;gradientColor=#d5739d;strokeColor=#996185;" parent="1" vertex="1">
          <mxGeometry x="730" y="640" width="310" height="180" as="geometry" />
        </mxCell>
        <mxCell id="9BrDLRoI2pEiPc-t6J7w-8" value="&lt;div style=&quot;font-size: 16px;&quot;&gt;Creamos la entidad horarios con el fin de poder indicar las horas a las que debe comer cada animal asignÃ¡ndole un id_horario, un horario_desayuno y otros dos mÃ¡s para la comida y la cena. Pasamos como clave forÃ¡nea el id del animal para saber a que animal corresponde el horario.&lt;/div&gt;" style="rounded=0;whiteSpace=wrap;html=1;fillColor=#e6d0de;gradientColor=#d5739d;strokeColor=#996185;" parent="1" vertex="1">
          <mxGeometry x="1320" y="230" width="310" height="180" as="geometry" />
        </mxCell>
        <mxCell id="9BrDLRoI2pEiPc-t6J7w-10" value="&lt;div style=&quot;font-size: 16px;&quot;&gt;La entidad especie estÃ¡ creada para dar mÃ¡s informaciÃ³n a la tabla animal por lo que creamos la id_especie para pasarla como clave forÃ¡nea a la misma.&lt;/div&gt;" style="rounded=0;whiteSpace=wrap;html=1;fillColor=#e6d0de;gradientColor=#d5739d;strokeColor=#996185;" parent="1" vertex="1">
          <mxGeometry x="390" y="-320" width="310" height="180" as="geometry" />
        </mxCell>
        <mxCell id="HqRs6RPKQYq-Opz7iHnu-3" value="Una especie perteneces muchos animales" style="rounded=0;whiteSpace=wrap;html=1;fillColor=#dae8fc;strokeColor=#6c8ebf;" vertex="1" parent="1">
          <mxGeometry x="500" y="205" width="100" height="50" as="geometry" />
        </mxCell>
        <mxCell id="HqRs6RPKQYq-Opz7iHnu-7" value="Un animal solo puede residir en un recinto" style="rounded=0;whiteSpace=wrap;html=1;fillColor=#dae8fc;strokeColor=#6c8ebf;" vertex="1" parent="1">
          <mxGeometry x="110" y="200" width="120" height="60" as="geometry" />
        </mxCell>
        <mxCell id="HqRs6RPKQYq-Opz7iHnu-8" value="Un animal es cuidado por un empleado&amp;nbsp;" style="rounded=0;whiteSpace=wrap;html=1;fillColor=#dae8fc;strokeColor=#6c8ebf;" vertex="1" parent="1">
          <mxGeometry x="319" y="565" width="95" height="50" as="geometry" />
        </mxCell>
        <mxCell id="HqRs6RPKQYq-Opz7iHnu-9" value="Muchos animales siguen un mismo horario de comidas" style="rounded=0;whiteSpace=wrap;html=1;fillColor=#dae8fc;strokeColor=#6c8ebf;" vertex="1" parent="1">
          <mxGeometry x="755" y="240" width="115" height="40" as="geometry" />
        </mxCell>
        <mxCell id="HqRs6RPKQYq-Opz7iHnu-10" value="En muchos recintos puede que no hayan animales" style="rounded=0;whiteSpace=wrap;html=1;fillColor=#dae8fc;strokeColor=#6c8ebf;" vertex="1" parent="1">
          <mxGeometry x="300" y="205" width="106" height="50" as="geometry" />
        </mxCell>
        <mxCell id="HqRs6RPKQYq-Opz7iHnu-11" value="Un empleado puede no cuidar animales." style="rounded=0;whiteSpace=wrap;html=1;fillColor=#dae8fc;strokeColor=#6c8ebf;" vertex="1" parent="1">
          <mxGeometry x="225" y="370" width="100" height="50" as="geometry" />
        </mxCell>
        <mxCell id="HqRs6RPKQYq-Opz7iHnu-12" value="Un horario es seguido por muchos animales." style="rounded=0;whiteSpace=wrap;html=1;fillColor=#dae8fc;strokeColor=#6c8ebf;" vertex="1" parent="1">
          <mxGeometry x="580" y="260" width="105" height="50" as="geometry" />
        </mxCell>
        <mxCell id="HqRs6RPKQYq-Opz7iHnu-14" value="Un empleado trabaja en un oficio" style="rounded=0;whiteSpace=wrap;html=1;fillColor=#dae8fc;strokeColor=#6c8ebf;" vertex="1" parent="1">
          <mxGeometry x="280" y="958" width="95" height="50" as="geometry" />
        </mxCell>
        <mxCell id="HqRs6RPKQYq-Opz7iHnu-15" value="Un oficio puede no ser trabajado por ningÃºn empleado" style="rounded=0;whiteSpace=wrap;html=1;fillColor=#dae8fc;strokeColor=#6c8ebf;" vertex="1" parent="1">
          <mxGeometry x="275" y="768" width="105" height="60" as="geometry" />
        </mxCell>
        <mxCell id="HqRs6RPKQYq-Opz7iHnu-16" value="Un animal pertenece a una sola especie" style="rounded=0;whiteSpace=wrap;html=1;fillColor=#dae8fc;strokeColor=#6c8ebf;" vertex="1" parent="1">
          <mxGeometry x="330" y="115" width="100" height="60" as="geometry" />
        </mxCell>
      </root>
    </mxGraphModel>
  </diagram>
</mxfile>
